<svg width="70" height="70" viewBox="0 0 70 70" fill="none" xmlns="http://www.w3.org/2000/svg">
<path fill-rule="evenodd" clip-rule="evenodd" d="M36.4163 3.28378C35.5354 2.7944 34.4644 2.7944 33.5836 3.28378L7.33347 17.8671L7.31288 17.9021L7.27079 17.9026C6.3801 18.4267 5.83325 19.3833 5.83325 20.4168V49.5831C5.83325 50.6425 6.40751 51.6184 7.33347 52.1326L33.548 66.6964C34.4338 67.2048 35.5223 67.2132 36.4163 66.7165L62.6662 52.1332C63.5923 51.6187 64.1666 50.6428 64.1666 49.5834V20.4168C64.1666 19.3833 63.6197 18.427 62.729 17.903C62.7071 17.8901 62.6852 17.8776 62.663 17.8653L36.4163 3.28378ZM14.756 20.4166L35.0002 31.6634L42.2493 27.6361L22.5836 16.0679L14.756 20.4166ZM48.1663 24.3489L55.2442 20.4168L34.9999 9.16997L28.5005 12.7808L48.1663 24.3489ZM11.6666 47.867V25.3737L32.0833 36.7163V59.2096L11.6666 47.867ZM37.9166 59.2099V36.7163L58.3332 25.3737V47.8673L37.9166 59.2099Z" fill="white"/>
</svg>
