<svg width="35" height="35" viewBox="0 0 35 35" fill="none" xmlns="http://www.w3.org/2000/svg">
<path d="M17.5001 2.97461C9.47925 2.97461 2.91675 9.52253 2.91675 17.5871C2.91675 24.8788 8.25425 30.9309 15.2251 32.0246V21.8163H11.5209V17.5871H15.2251V14.3642C15.2251 10.7038 17.398 8.69128 20.7376 8.69128C22.3272 8.69128 23.9897 8.96836 23.9897 8.96836V12.5704H22.1522C20.3438 12.5704 19.7751 13.6934 19.7751 14.8455V17.5871H23.8292L23.173 21.8163H19.7751V32.0246C23.2115 31.4818 26.3408 29.7285 28.5979 27.0809C30.8549 24.4334 32.0913 21.0661 32.0834 17.5871C32.0834 9.52253 25.5209 2.97461 17.5001 2.97461Z" fill="white" stroke="white" stroke-width="2.66667"/>
</svg>
