<svg width="35" height="35" viewBox="0 0 35 35" fill="none" xmlns="http://www.w3.org/2000/svg">
<g clip-path="url(#clip0_28_102)">
<path fill-rule="evenodd" clip-rule="evenodd" d="M17.5 26.25C22.3325 26.25 26.25 22.3325 26.25 17.5C26.25 12.6675 22.3325 8.75 17.5 8.75C12.6675 8.75 8.75 12.6675 8.75 17.5C8.75 22.3325 12.6675 26.25 17.5 26.25ZM17.5 23.3333C20.7216 23.3333 23.3333 20.7216 23.3333 17.5C23.3333 14.2783 20.7216 11.6667 17.5 11.6667C14.2783 11.6667 11.6667 14.2783 11.6667 17.5C11.6667 20.7216 14.2783 23.3333 17.5 23.3333Z" fill="white" stroke="white"/>
<path d="M26.2498 7.29102C25.4444 7.29102 24.7915 7.94394 24.7915 8.74935C24.7915 9.55476 25.4444 10.2077 26.2498 10.2077C27.0553 10.2077 27.7082 9.55476 27.7082 8.74935C27.7082 7.94394 27.0553 7.29102 26.2498 7.29102Z" fill="white" stroke="white"/>
<path fill-rule="evenodd" clip-rule="evenodd" d="M2.41194 6.2356C1.45825 8.10732 1.45825 10.5576 1.45825 15.458V19.5413C1.45825 24.4418 1.45825 26.8921 2.41194 28.7637C3.25084 30.4102 4.58941 31.7488 6.23584 32.5876C8.10757 33.5413 10.5578 33.5413 15.4583 33.5413H19.5416C24.442 33.5413 26.8923 33.5413 28.7639 32.5876C30.4104 31.7488 31.749 30.4102 32.5878 28.7637C33.5416 26.8921 33.5416 24.4418 33.5416 19.5413V15.458C33.5416 10.5576 33.5416 8.10732 32.5878 6.2356C31.749 4.58917 30.4104 3.25059 28.7639 2.4117C26.8923 1.45801 24.442 1.45801 19.5416 1.45801H15.4583C10.5578 1.45801 8.10757 1.45801 6.23584 2.4117C4.58941 3.25059 3.25084 4.58917 2.41194 6.2356ZM19.5416 4.37467H15.4583C12.9599 4.37467 11.2615 4.37695 9.94879 4.4842C8.67006 4.58867 8.01614 4.77804 7.55998 5.01046C6.46236 5.56974 5.56998 6.46212 5.01071 7.55973C4.77828 8.0159 4.58891 8.66982 4.48444 9.94854C4.37719 11.2613 4.37492 12.9597 4.37492 15.458V19.5413C4.37492 22.0398 4.37719 23.738 4.48444 25.0508C4.58891 26.3296 4.77828 26.9835 5.01071 27.4397C5.56998 28.5372 6.46236 29.4296 7.55998 29.9888C8.01614 30.2213 8.67006 30.4107 9.94879 30.5152C11.2615 30.6223 12.9599 30.6247 15.4583 30.6247H19.5416C22.04 30.6247 23.7382 30.6223 25.051 30.5152C26.3298 30.4107 26.9838 30.2213 27.4399 29.9888C28.5375 29.4296 29.4298 28.5372 29.9891 27.4397C30.2215 26.9835 30.411 26.3296 30.5154 25.0508C30.6226 23.738 30.6249 22.0398 30.6249 19.5413V15.458C30.6249 12.9597 30.6226 11.2613 30.5154 9.94854C30.411 8.66982 30.2215 8.0159 29.9891 7.55973C29.4298 6.46212 28.5375 5.56974 27.4399 5.01046C26.9838 4.77804 26.3298 4.58867 25.051 4.4842C23.7382 4.37695 22.04 4.37467 19.5416 4.37467Z" fill="white" stroke="white"/>
</g>
<defs>
<clipPath id="clip0_28_102">
<rect width="35" height="35" fill="white"/>
</clipPath>
</defs>
</svg>
