<svg width="37" height="49" viewBox="0 0 37 49" fill="none" xmlns="http://www.w3.org/2000/svg">
<path d="M28.9905 15.7397C29.3393 14.5773 29.5312 13.3395 29.5312 12.0536C29.5312 5.39699 24.4948 0 18.2812 0C12.0677 0 7.03125 5.39699 7.03125 12.0536C7.03125 13.3395 7.2232 14.5773 7.57195 15.7397C3.16758 17.3737 0 21.8456 0 27.1205C0 33.7771 5.03648 39.1741 11.25 39.1741C12.7441 39.1741 14.1652 38.8502 15.4688 38.2821V47.4609C15.4688 47.8775 15.783 48.2143 16.1719 48.2143H20.3906C20.7795 48.2143 21.0938 47.8775 21.0938 47.4609V38.2821C22.3973 38.8502 23.8184 39.1741 25.3125 39.1741C31.526 39.1741 36.5625 33.7771 36.5625 27.1205C36.5625 21.8456 33.3949 17.3737 28.9905 15.7397ZM19.6875 46.7076H16.875V37.5484C17.3672 37.2418 17.839 36.9013 18.2812 36.5216C18.7235 36.9013 19.1953 37.2418 19.6875 37.5484V46.7076ZM25.3125 37.6674C23.2643 37.6674 21.3659 36.9932 19.7909 35.8458L24.4195 30.8873H27.4219C27.8107 30.8873 28.125 30.5505 28.125 30.1339C28.125 29.7173 27.8107 29.3806 27.4219 29.3806H24.6094V26.3672C24.6094 25.9506 24.2951 25.6138 23.9062 25.6138C23.5174 25.6138 23.2031 25.9506 23.2031 26.3672V30.0571L18.9844 34.5779V33.9007V25.1724L21.5986 22.3714C21.8735 22.0769 21.8742 21.6 21.5993 21.3054C21.3244 21.0109 20.8695 21.0222 20.5945 21.3167L18.2812 23.7953L15.9384 21.2851C15.6635 20.9905 15.2817 21.0583 15.0075 21.3529C14.7319 21.6482 14.7016 22.0919 14.9766 22.3865L17.5781 25.1739V33.9007V34.5772L13.3594 30.0593V26.3672C13.3594 25.9506 13.0451 25.6138 12.6562 25.6138C12.2674 25.6138 11.9531 25.9506 11.9531 26.3672V29.3806H9.14062C8.7518 29.3806 8.4375 29.7173 8.4375 30.1339C8.4375 30.5505 8.7518 30.8873 9.14062 30.8873H12.143L16.7716 35.8458C15.1966 36.9932 13.2982 37.6674 11.25 37.6674C5.81344 37.6674 1.40625 32.9454 1.40625 27.1205C1.40625 21.9443 4.88812 17.6487 9.47812 16.753C8.81789 15.3367 8.4375 13.7441 8.4375 12.0536C8.4375 6.22868 12.8447 1.5067 18.2812 1.5067C23.7178 1.5067 28.125 6.22868 28.125 12.0536C28.125 13.7441 27.7446 15.3367 27.0844 16.753C31.6744 17.6487 35.1562 21.9443 35.1562 27.1205C35.1562 32.9454 30.7491 37.6674 25.3125 37.6674Z" fill="white"/>
</svg>
