<svg width="35" height="35" viewBox="0 0 35 35" fill="none" xmlns="http://www.w3.org/2000/svg">
<path d="M9.479 11.666C10.6871 11.666 11.6665 10.6866 11.6665 9.47852C11.6665 8.27039 10.6871 7.29102 9.479 7.29102C8.27088 7.29102 7.2915 8.27039 7.2915 9.47852C7.2915 10.6866 8.27088 11.666 9.479 11.666Z" fill="white" stroke="white" stroke-width="0.7"/>
<path d="M7.2915 14.5833C7.2915 13.7779 7.94443 13.125 8.74984 13.125H10.2082C11.0136 13.125 11.6665 13.7779 11.6665 14.5833V26.25C11.6665 27.0554 11.0136 27.7083 10.2082 27.7083H8.74984C7.94443 27.7083 7.2915 27.0554 7.2915 26.25V14.5833Z" fill="white" stroke="white" stroke-width="0.7"/>
<path d="M16.0416 27.7083H17.4999C18.3054 27.7083 18.9583 27.0554 18.9583 26.25V19.6875C18.9583 17.5 23.3333 16.0417 23.3333 18.9583V26.2506C23.3333 27.056 23.9861 27.7083 24.7916 27.7083H26.2499C27.0554 27.7083 27.7083 27.0554 27.7083 26.25V17.5C27.7083 14.5833 25.5208 13.125 22.6041 13.125C19.6874 13.125 18.9583 15.3125 18.9583 15.3125V14.5833C18.9583 13.7779 18.3054 13.125 17.4999 13.125H16.0416C15.2361 13.125 14.5833 13.7779 14.5833 14.5833V26.25C14.5833 27.0554 15.2361 27.7083 16.0416 27.7083Z" fill="white" stroke="white" stroke-width="0.7"/>
<path fill-rule="evenodd" clip-rule="evenodd" d="M29.1666 1.45801C31.5829 1.45801 33.5416 3.41677 33.5416 5.83301V29.1663C33.5416 31.5827 31.5829 33.5413 29.1666 33.5413H5.83325C3.41701 33.5413 1.45825 31.5827 1.45825 29.1663V5.83301C1.45825 3.41677 3.41701 1.45801 5.83325 1.45801H29.1666ZM29.1666 4.37467C29.972 4.37467 30.6249 5.0276 30.6249 5.83301V29.1663C30.6249 29.9718 29.972 30.6247 29.1666 30.6247H5.83325C5.02784 30.6247 4.37492 29.9718 4.37492 29.1663V5.83301C4.37492 5.0276 5.02784 4.37467 5.83325 4.37467H29.1666Z" fill="white" stroke="white" stroke-width="0.7"/>
</svg>
