<svg width="98" height="98" viewBox="0 0 98 98" fill="none" xmlns="http://www.w3.org/2000/svg">
<circle cx="49" cy="49" r="49" fill="#EF6341"/>
<g clip-path="url(#clip0_140_8)">
<path d="M28.8512 19.712C24.4537 22.564 23.5899 31.4788 25.2501 38.7447C26.5431 44.403 29.2921 51.9931 33.9276 59.1403C38.2884 65.8641 44.3722 71.8931 49.0112 75.3813C54.9684 79.8603 63.4605 82.7073 67.858 79.8553C70.0816 78.4132 73.3852 74.4731 73.536 73.7661C73.536 73.7661 71.5987 70.7791 71.1736 70.1236L64.6771 60.1067C64.1944 59.3623 61.1669 60.0427 59.6289 60.9138C57.5542 62.0893 55.6436 65.2433 55.6436 65.2433C54.2211 66.0652 53.0296 65.2463 50.5401 64.1006C47.4805 62.6928 44.0405 58.3188 41.3026 54.3572C38.802 50.2418 36.2111 45.317 36.1736 41.9492C36.1427 39.209 35.881 37.7872 37.2116 36.8235C37.2116 36.8235 40.8706 36.3652 42.79 34.9505C44.2126 33.9015 46.0685 31.4147 45.5857 30.6702L39.0892 20.6535C38.6641 19.998 36.7269 17.011 36.7269 17.011C36.0197 16.8603 31.0749 18.2698 28.8512 19.712Z" fill="white"/>
</g>
<defs>
<clipPath id="clip0_140_8">
<rect width="64" height="64" fill="white" transform="translate(17 17)"/>
</clipPath>
</defs>
</svg>
