<svg width="70" height="70" viewBox="0 0 70 70" fill="none" xmlns="http://www.w3.org/2000/svg">
<path d="M32.0834 46.6667C32.0834 43.9486 32.0834 42.5898 32.5273 41.5176C33.1194 40.0884 34.2552 38.9527 35.6843 38.3606C36.7565 37.9167 38.1154 37.9167 40.8334 37.9167H49.0001C52.267 37.9167 53.9007 37.9167 55.1484 37.2808C56.246 36.7217 57.1385 35.8292 57.6976 34.7317C58.3334 33.4839 58.3334 31.8503 58.3334 28.5833V26.8333C58.3334 23.5663 58.3334 21.9329 57.6976 20.6851C57.1385 19.5874 56.246 18.695 55.1484 18.1358C53.9007 17.5 52.267 17.5 49.0001 17.5H46.6667M46.6667 17.5C46.6667 20.218 46.6667 21.577 46.2228 22.649C45.6307 24.0783 44.495 25.2139 43.0658 25.806C41.9937 26.25 40.6348 26.25 37.9167 26.25H20.4167C17.6988 26.25 16.3398 26.25 15.2678 25.806C13.8384 25.2139 12.7028 24.0783 12.1108 22.649C11.6667 21.577 11.6667 20.218 11.6667 17.5C11.6667 14.782 11.6667 13.423 12.1108 12.351C12.7028 10.9217 13.8384 9.78609 15.2678 9.19403C16.3398 8.75 17.6988 8.75 20.4167 8.75H37.9167C40.6348 8.75 41.9937 8.75 43.0658 9.19403C44.495 9.78609 45.6307 10.9217 46.2228 12.351C46.6667 13.423 46.6667 14.782 46.6667 17.5ZM30.9167 61.25H33.2501C34.8837 61.25 35.7004 61.25 36.3243 60.9321C36.8732 60.6524 37.3191 60.2064 37.5988 59.6575C37.9167 59.0336 37.9167 58.217 37.9167 56.5833V51.3333C37.9167 49.6997 37.9167 48.883 37.5988 48.2592C37.3191 47.7102 36.8732 47.2643 36.3243 46.9846C35.7004 46.6667 34.8837 46.6667 33.2501 46.6667H30.9167C29.2831 46.6667 28.4665 46.6667 27.8426 46.9846C27.2938 47.2643 26.8476 47.7102 26.568 48.2592C26.2501 48.883 26.2501 49.6997 26.2501 51.3333V56.5833C26.2501 58.217 26.2501 59.0336 26.568 59.6575C26.8476 60.2064 27.2938 60.6524 27.8426 60.9321C28.4665 61.25 29.2831 61.25 30.9167 61.25Z" stroke="white" stroke-width="4" stroke-linecap="round" stroke-linejoin="round"/>
</svg>
