<svg width="70" height="70" viewBox="0 0 70 70" fill="none" xmlns="http://www.w3.org/2000/svg">
<path d="M20.4167 52.5H18.0833C14.8164 52.5 13.1829 52.5 11.9351 51.8642C10.8374 51.305 9.94505 50.4125 9.3858 49.315C8.75 48.0673 8.75 46.4336 8.75 43.1667V29.75C8.75 26.483 8.75 24.8495 9.3858 23.6017C9.94505 22.5041 10.8374 21.6117 11.9351 21.0525C13.1829 20.4167 14.8164 20.4167 18.0833 20.4167H20.4167M20.4167 20.4167V15.75V13.4167C20.4167 11.7832 20.4167 10.9664 20.7346 10.3425C21.0142 9.79373 21.4604 9.34754 22.0092 9.06789C22.6331 8.75 23.4499 8.75 25.0833 8.75H44.9167C46.5503 8.75 47.367 8.75 47.9908 9.06789C48.5398 9.34754 48.9857 9.79373 49.2654 10.3425C49.5833 10.9664 49.5833 11.7832 49.5833 13.4167V15.75V20.4167M20.4167 20.4167H49.5833M49.5833 52.5H51.9167C55.1836 52.5 56.8173 52.5 58.065 51.8642C59.1625 51.305 60.055 50.4125 60.6142 49.315C61.25 48.0673 61.25 46.4336 61.25 43.1667V29.75C61.25 26.483 61.25 24.8495 60.6142 23.6017C60.055 22.5041 59.1625 21.6117 58.065 21.0525C56.8173 20.4167 55.1836 20.4167 51.9167 20.4167H49.5833M20.4167 32.0833H20.4458M25.0833 61.25H44.9167C46.5503 61.25 47.367 61.25 47.9908 60.9321C48.5398 60.6524 48.9857 60.2064 49.2654 59.6575C49.5833 59.0336 49.5833 58.217 49.5833 56.5833V48.4167C49.5833 46.783 49.5833 45.9664 49.2654 45.3425C48.9857 44.7936 48.5398 44.3476 47.9908 44.0679C47.367 43.75 46.5503 43.75 44.9167 43.75H25.0833C23.4499 43.75 22.6331 43.75 22.0092 44.0679C21.4604 44.3476 21.0142 44.7936 20.7346 45.3425C20.4167 45.9664 20.4167 46.783 20.4167 48.4167V56.5833C20.4167 58.217 20.4167 59.0336 20.7346 59.6575C21.0142 60.2064 21.4604 60.6524 22.0092 60.9321C22.6331 61.25 23.4499 61.25 25.0833 61.25Z" stroke="white" stroke-width="4" stroke-linecap="round" stroke-linejoin="round"/>
</svg>
