<svg width="50" height="50" viewBox="0 0 50 50" fill="none" xmlns="http://www.w3.org/2000/svg">
<g clip-path="url(#clip0_51_35)">
<path d="M17.7695 0H32.2306L38.0563 10.2448L43.5256 7.08716L45.0881 9.7935L41.6566 22.6L28.8501 19.1685L27.2876 16.4622L32.6435 13.3699L28.5948 6.25H21.4052L19.6735 9.29522L14.2607 6.17016L17.7695 0Z" fill="white"/>
<path d="M41.1404 28.3114L42.8248 31.2738L39.3923 37.5H31.25V31.2499H28.125L18.75 40.6247L28.125 49.9997H31.25V43.75H43.0838L49.9876 31.2263L46.5529 25.1863L41.1404 28.3114Z" fill="white"/>
<path d="M10.6077 37.5H14.0624V43.75H6.91641L0.012207 31.2263L5.76438 21.111L0.224304 17.9125L1.7868 15.2062L14.5933 11.7747L18.0248 24.5812L16.4623 27.2875L11.1772 24.2361L7.17516 31.2737L10.6077 37.5Z" fill="white"/>
</g>
<defs>
<clipPath id="clip0_51_35">
<rect width="50" height="50" fill="white"/>
</clipPath>
</defs>
</svg>
