<svg width="70" height="70" viewBox="0 0 70 70" fill="none" xmlns="http://www.w3.org/2000/svg">
<g clip-path="url(#clip0_29_241)">
<path d="M24.8773 0H45.123L53.2788 14.3428L60.936 9.92202L63.1235 13.7109L58.3193 31.64L40.3902 26.8359L38.2027 23.047L45.7009 18.7179L40.0328 8.75H29.9673L27.543 13.0133L19.9651 8.63822L24.8773 0Z" fill="white"/>
<path d="M57.5965 39.6358L59.9547 43.7832L55.1492 52.4999H43.75V43.7497H39.375L26.25 56.8745L39.375 69.9995H43.75V61.2499H60.3173L69.9826 43.7167L65.174 35.2607L57.5965 39.6358Z" fill="white"/>
<path d="M14.8507 52.5001H19.6874V61.2501H9.68297L0.0170898 43.7169L8.07012 29.5555L0.314025 25.0776L2.50152 21.2887L20.4306 16.4846L25.2347 34.4137L23.0472 38.2026L15.648 33.9306L10.0452 43.7833L14.8507 52.5001Z" fill="white"/>
</g>
<defs>
<clipPath id="clip0_29_241">
<rect width="70" height="70" fill="white"/>
</clipPath>
</defs>
</svg>
