<svg width="70" height="54" viewBox="0 0 70 54" fill="none" xmlns="http://www.w3.org/2000/svg">
<path fill-rule="evenodd" clip-rule="evenodd" d="M8.75 0.75C3.91752 0.75 0 4.66752 0 9.5V35.75C0 39.577 2.4569 42.8302 5.87945 44.0182C6.37105 49.1982 10.7332 53.25 16.0417 53.25C21.1845 53.25 25.439 49.447 26.1466 44.5H43.8533C44.5611 49.447 48.8157 53.25 53.9583 53.25C59.267 53.25 63.6288 49.1982 64.1206 44.0182C67.543 42.8302 70 39.577 70 35.75V23.3585C70 21.239 69.2306 19.1916 67.835 17.5965L60.8131 9.57143C59.1515 7.67253 56.7513 6.58333 54.2281 6.58333H49.0855C47.8844 3.18486 44.6431 0.75 40.8333 0.75H8.75ZM11.6667 42.8553V43.228C11.7643 45.5599 13.6857 47.4205 16.0417 47.4205C18.3976 47.4205 20.319 45.5599 20.4167 43.228V42.8553C20.319 40.5234 18.3976 38.6629 16.0417 38.6629C13.6857 38.6629 11.7643 40.5234 11.6667 42.8553ZM16.0417 32.8333C20.1139 32.8333 23.6292 35.2177 25.2676 38.6667H44.7323C46.3706 35.2177 49.8861 32.8333 53.9583 32.8333C57.8215 32.8333 61.1832 34.9791 62.9172 38.1437C63.6726 37.6167 64.1667 36.7411 64.1667 35.75V24.0833H49.5833C46.3616 24.0833 43.75 21.4718 43.75 18.25V9.5C43.75 7.88918 42.4442 6.58333 40.8333 6.58333H8.75C7.13918 6.58333 5.83333 7.88918 5.83333 9.5V35.75C5.83333 36.7411 6.32756 37.6167 7.08298 38.1437C8.81685 34.9791 12.1787 32.8333 16.0417 32.8333ZM49.5833 12.4167V15.3333C49.5833 16.9442 50.8891 18.25 52.5 18.25H60.6556L56.4229 13.4127C55.8693 12.7797 55.069 12.4167 54.2281 12.4167H49.5833ZM49.5833 42.8553V43.228C49.681 45.5599 51.6023 47.4205 53.9583 47.4205C56.3144 47.4205 58.2356 45.5599 58.3333 43.228V42.8553C58.2356 40.5234 56.3144 38.6629 53.9583 38.6629C51.6023 38.6629 49.681 40.5234 49.5833 42.8553Z" fill="white"/>
</svg>
