<svg width="35" height="35" viewBox="0 0 35 35" fill="none" xmlns="http://www.w3.org/2000/svg">
<path fill-rule="evenodd" clip-rule="evenodd" d="M33.7045 6.55437C34.1681 4.29429 31.9482 2.41611 29.7962 3.24761L3.41609 13.4399C1.01278 14.3685 0.905697 17.7292 3.245 18.8088L8.98984 21.4603L11.7227 31.0254C11.8647 31.5222 12.259 31.9069 12.7592 32.0366C13.2593 32.1661 13.7908 32.0214 14.1562 31.6559L18.3659 27.4462L24.263 31.869C25.9748 33.1528 28.4402 32.2177 28.8701 30.1216L33.7045 6.55437ZM4.46726 16.1606L30.8473 5.96828L26.013 29.5357L19.1041 24.3539C18.5236 23.9185 17.7111 23.9762 17.1979 24.4894L15.3948 26.2925L15.9366 23.313L26.552 12.6977C27.0687 12.181 27.1232 11.3619 26.6797 10.7813C26.2362 10.2006 25.4317 10.0378 24.7973 10.4003L10.1372 18.7774L4.46726 16.1606ZM11.9247 21.1153L12.809 24.2104L13.1485 22.343C13.2016 22.0512 13.3424 21.7824 13.5521 21.5727L16.7894 18.3355L11.9247 21.1153Z" fill="white" stroke="white" stroke-width="0.7"/>
</svg>
