<svg width="81" height="81" viewBox="0 0 81 81" fill="none" xmlns="http://www.w3.org/2000/svg">
<path d="M42.1607 2.60466C46.3044 2.54138 50.4177 2.57429 54.5284 2.54138C54.6651 7.68235 56.7508 12.3095 60.0693 15.7368L60.0642 15.7317C63.6358 18.9489 68.2832 21.0347 73.4065 21.3891L73.4773 21.3941V34.1415C68.6376 34.02 64.0864 32.9037 59.9833 30.985L60.1908 31.0711C58.2063 30.1168 56.5281 29.1372 54.9334 28.0437L55.065 28.1298C55.0347 37.3663 55.0954 46.6029 55.0017 55.8065C54.741 60.4969 53.1818 64.7747 50.6809 68.3463L50.7315 68.2678C46.5499 74.2568 39.7763 78.1878 32.0737 78.4207H32.0382C31.7269 78.4359 31.3599 78.4434 30.9903 78.4434C26.6112 78.4434 22.5182 77.2234 19.0302 75.1047L19.1314 75.1629C12.783 71.3433 8.40397 64.8076 7.59397 57.2063L7.58384 57.1025C7.52056 55.5204 7.49018 53.9384 7.55346 52.3893C8.79378 40.2924 18.9289 30.9344 31.2485 30.9344C32.6331 30.9344 33.9898 31.0534 35.3086 31.2787L35.1669 31.2584C35.2302 35.9387 35.0403 40.6215 35.0403 45.3018C33.9696 44.9145 32.7343 44.6892 31.4459 44.6892C26.7176 44.6892 22.6954 47.7115 21.207 51.9311L21.1842 52.0071C20.8476 53.0879 20.6527 54.3308 20.6527 55.6166C20.6527 56.1381 20.6856 56.6544 20.7463 57.1607L20.7413 57.0999C21.5817 62.2789 26.0215 66.1871 31.3751 66.1871C31.5295 66.1871 31.6813 66.1846 31.8332 66.177H31.8104C35.5137 66.0656 38.7283 64.0735 40.5458 61.1297L40.5711 61.0841C41.2469 60.1425 41.7102 59.0034 41.8646 57.7657L41.8671 57.7302C42.1835 52.0678 42.0569 46.4383 42.0873 40.7759C42.1177 28.0285 42.0569 15.3115 42.1506 2.59707L42.1607 2.60466Z" fill="white"/>
</svg>
