<svg width="80" height="80" viewBox="0 0 80 80" fill="none" xmlns="http://www.w3.org/2000/svg">
<path d="M40 56.6666V36.6666" stroke="#EF6341" stroke-width="5" stroke-linecap="round"/>
<path d="M40.0003 23.3333C41.8413 23.3333 43.3337 24.8257 43.3337 26.6667C43.3337 28.5076 41.8413 30 40.0003 30C38.1594 30 36.667 28.5076 36.667 26.6667C36.667 24.8257 38.1594 23.3333 40.0003 23.3333Z" fill="#EF6341"/>
<path d="M23.3337 11.126C28.2366 8.28986 33.929 6.66663 40.0003 6.66663C58.4097 6.66663 73.3337 21.5905 73.3337 40C73.3337 58.4093 58.4097 73.3333 40.0003 73.3333C21.5908 73.3333 6.66699 58.4093 6.66699 40C6.66699 33.9286 8.29023 28.2362 11.1264 23.3333" stroke="#EF6341" stroke-width="5" stroke-linecap="round"/>
</svg>
